<?xml version="1.0" encoding="UTF-8"?>
<svg width="752pt" height="752pt" version="1.1" viewBox="0 0 752 752" xmlns="http://www.w3.org/2000/svg">
 <path d="m578.06 325.29-154.5-122.54c-2.8906-2.2891-6.3594-3.7266-10.023-4.1445-3.6602-0.41797-7.3672 0.19531-10.699 1.7773-3.3555 1.5977-6.1953 4.1133-8.1836 7.2578-1.9883 3.1406-3.0508 6.7812-3.0625 10.5v59.199c-212.91 14.402-232.64 252.57-232.64 255.14-0.13281 4.5078 1.2852 8.9258 4.0117 12.516 2.7305 3.5898 6.6055 6.1367 10.984 7.2188 1.5117 0.65625 3.1055 1.1172 4.7344 1.3789 3.7969-0.007812 7.5078-1.1094 10.695-3.1758 3.1836-2.0625 5.707-5.0039 7.2617-8.4648 1.9727-4.3398 46.176-98.664 194.96-106.16v59.199-0.003907c0.011718 3.7188 1.0742 7.3594 3.0625 10.504 1.9883 3.1406 4.8281 5.6562 8.1836 7.2539 3.332 1.582 7.0391 2.1953 10.699 1.7773 3.6641-0.41797 7.1328-1.8516 10.023-4.1445l154.5-122.54c9.4844-7.4844 15.016-18.898 15.016-30.98 0-12.078-5.5312-23.496-15.016-30.98z"/>
</svg>
